# xmcd
#
# Track frame offsets: 
#        150
#        19616
#        39748
#        68731
#        92921
#        118450
#        140232
#        164162
#        184818
#        207208
#        222777
#        237048
#        252189
#        280378
#
# Disc length: 3946 seconds
#
# Revision: 0
# Processed by: cddbd v1.5.2PL0 Copyright (c) Steve Scherf et al.
# Submitted via: ExactAudioCopy v1.0b3
#
DISCID=da0f680e
DTITLE=The Meters - Be My Lady [New Directions]
DYEAR=1900
DGENRE=Funk
TTITLE0=No More Okey Doke
TTITLE1=I'm Gone
TTITLE2=Be My Lady
TTITLE3=My Name Up In Lights
TTITLE4=Funkify Your Life
TTITLE5=Stop That Train
TTITLE6=We Got The Kind of Love
TTITLE7=Give It What You Can
TTITLE8=All I Do Every Day
TTITLE9=Hey Pocky A-Way (Single Version)
TTITLE10=People Say (Single Version)
TTITLE11=Running Fast (Single Version) [Long Version]
TTITLE12=Disco Is The Thing Today (Disco Mix)
TTITLE13=Be My Lady (Single Version)
EXTD=
EXTT0=
EXTT1=
EXTT2=
EXTT3=
EXTT4=
EXTT5=
EXTT6=
EXTT7=
EXTT8=
EXTT9=
EXTT10=
EXTT11=
EXTT12=
EXTT13=
PLAYORDER=
